<svg width="156" height="38" viewBox="0 0 156 38" fill="none" xmlns="http://www.w3.org/2000/svg">
<path d="M39.9963 8.81305C34.7884 14.9974 34.931 23.5862 38.9173 29.8445C36.9874 34.7499 32.7106 38 28 38C21.5995 38 20 33.5 20 33.5C20 33.5 18.3995 38 12.0001 38C5.60061 38 0.000333818 31.9998 0.000102713 24C-6.74365e-05 18.1102 1.29576e-05 14.1173 6.72029e-05 11.423C8.66359e-05 10.4578 0.000102713 9.65933 0.000102713 9C0.000102713 6.50021 2.0001 4.00024 4.00009 4C6.00008 3.99976 8.00008 6.49976 8.00008 9V23C8.00008 25.4998 10.0001 28 12.0001 28C14.0001 28 16 25.4998 16 23V9C16 6.49976 18 4.00009 20 4C22 3.99991 24 6.49976 24 9V23C24.6722 26.8464 25.6167 27.8055 28 28C30.3619 27.6927 31.3963 26.9183 32 23V9C32 6.49976 34.0007 4.00001 36 4C37.9495 4 39.9001 6.37667 39.9963 8.81305Z" fill="#21BF48"/>
<path d="M72.6989 13.5694C71.4835 10.5453 69.461 7.90598 66.8483 5.93437C66.8627 5.83801 66.3552 1.31478 66.3534 1.21664C66.3174 0.884293 66.1587 0.576867 65.9079 0.353532C65.6571 0.130197 65.3318 0.00672613 64.9947 0.00687345C64.3666 -0.155499 61.1056 2.61019 60.5693 2.8814C57.547 2.09274 54.3703 2.09274 51.3479 2.8814C50.7864 2.59413 47.5687 -0.141225 46.9226 0.00687345C46.5855 0.00746825 46.2604 0.131152 46.0095 0.354305C45.7585 0.577458 45.5992 0.884449 45.5621 1.21664C45.5621 1.31657 45.06 5.83266 45.0672 5.93259C31.5086 16.0372 38.727 37.9967 55.9622 37.9967C68.495 38.2412 77.4698 24.7946 72.6989 13.5694ZM55.9622 27.1302C46.712 26.9679 46.6833 13.3446 55.9262 13.1412C65.2142 13.2715 65.2484 26.9714 55.9622 27.1392V27.1302Z" fill="#21BF48"/>
<path d="M71.1327 7.98517C72.654 9.60515 73.866 11.4969 74.6989 13.5694C77.4897 20.1357 75.577 27.4621 71 32.3635V32.9999C71 39.4999 81 39.4999 81 32.9999V22.5L91 35C91 35 93.5 37.9999 96 37.9999C98.5 37.9999 101 35.4999 101 32.9999V8.9999C101 2.4999 91 2.50019 91 8.9999V19.5L81 7C81 7 78.5 4 76 4C73.8403 4 71.6807 5.86557 71.1327 7.98517Z" fill="#21BF48"/>
<path fill-rule="evenodd" clip-rule="evenodd" d="M100 37.1654C101.408 36.2236 102.448 34.6117 102.448 32.9999V8.9999C102.448 6.94341 101.447 5.53759 100.078 4.78241C100.873 4.2608 101.725 4 102.448 4H115.448C121.948 4 129.448 10 129.448 21C129.448 32 122.448 38 115.448 38H102.448C101.702 38 100.817 37.7218 100 37.1654ZM108.448 15V27H113.448C115.448 27 118.448 24.5 118.448 21C118.448 17.5 115.448 15 113.448 15H108.448Z" fill="#21BF48"/>
<path d="M128.571 30.8301C131.414 34.9691 136.173 38 140.932 38C148.432 38 155.932 30.4732 155.932 22.9444V8.89258C155.932 2.36947 145.932 2.36947 145.932 8.89258V22.9444C145.932 29.9713 135.932 29.4695 135.932 22.9444V8.89258C135.932 2.68424 126.875 2.3843 126 7.99311C128.884 10.8679 130.932 15.2511 130.932 21C130.932 24.9302 130.039 28.2221 128.571 30.8301Z" fill="#21BF48"/>
</svg>